<svg width="40" height="40" viewBox="0 0 40 40" fill="none" xmlns="http://www.w3.org/2000/svg">
<path fill-rule="evenodd" clip-rule="evenodd" d="M40 40H31.1594V25.9384C31.1594 22.2578 29.7766 19.7451 26.7357 19.7451C24.4097 19.7451 23.1162 21.4407 22.5141 23.0749C22.2883 23.6614 22.3236 24.4784 22.3236 25.2955V40H13.5654C13.5654 40 13.6783 15.0913 13.5654 12.8271H22.3236V17.0916C22.841 15.227 25.6397 12.5658 30.1058 12.5658C35.6467 12.5658 40 16.4744 40 24.8908V40ZM4.70836 9.42819H4.65193C1.82973 9.42819 0 7.35095 0 4.71793C0 2.03367 1.88382 0 4.76246 0C7.63876 0 9.40733 2.02857 9.46378 4.71027C9.46378 7.34329 7.63875 9.42819 4.70836 9.42819ZM1.00891 12.8271H8.80526V40H1.00891V12.8271Z" fill="white"/>
</svg>
