<svg width="40" height="40" viewBox="0 0 40 40" fill="none" xmlns="http://www.w3.org/2000/svg">
<path fill-rule="evenodd" clip-rule="evenodd" d="M20 0C14.5683 0 13.8873 0.0230212 11.754 0.120354C9.62528 0.217447 8.17138 0.555566 6.89924 1.05001C5.58406 1.56104 4.46872 2.24491 3.35678 3.35677C2.24492 4.46871 1.56104 5.58406 1.05001 6.89924C0.555566 8.17138 0.21746 9.62526 0.120366 11.754C0.0230339 13.8872 0 14.5683 0 20C0 25.4317 0.0230339 26.1128 0.120366 28.246C0.21746 30.3747 0.555566 31.8286 1.05001 33.1008C1.56104 34.4159 2.24492 35.5313 3.35678 36.6432C4.46872 37.7551 5.58406 38.439 6.89924 38.9501C8.17138 39.4444 9.62528 39.7826 11.754 39.8796C13.8873 39.977 14.5683 40 20 40C25.4317 40 26.1127 39.977 28.246 39.8796C30.3747 39.7826 31.8286 39.4444 33.1007 38.9501C34.4159 38.439 35.5313 37.7551 36.6432 36.6432C37.7551 35.5313 38.4389 34.4159 38.95 33.1008C39.4444 31.8286 39.7826 30.3747 39.8797 28.246C39.977 26.1128 40 25.4317 40 20C40 14.5683 39.977 13.8872 39.8797 11.754C39.7826 9.62526 39.4444 8.17138 38.95 6.89924C38.4389 5.58406 37.7551 4.46871 36.6432 3.35677C35.5313 2.24491 34.4159 1.56104 33.1007 1.05001C31.8286 0.555566 30.3747 0.217447 28.246 0.120354C26.1127 0.0230212 25.4317 0 20 0ZM20 3.60359C25.3402 3.60359 25.9728 3.624 28.0817 3.72022C30.0317 3.80914 31.0907 4.13495 31.7955 4.40885C32.729 4.77166 33.3952 5.20506 34.0951 5.90496C34.795 6.60478 35.2283 7.27103 35.5911 8.20457C35.865 8.90932 36.1908 9.9683 36.2798 11.9183C36.376 14.0272 36.3964 14.6598 36.3964 20C36.3964 25.3402 36.376 25.9728 36.2798 28.0817C36.1908 30.0317 35.865 31.0907 35.5911 31.7954C35.2283 32.729 34.795 33.3952 34.0951 34.095C33.3952 34.7949 32.729 35.2283 31.7955 35.5911C31.0907 35.865 30.0317 36.1909 28.0817 36.2798C25.9731 36.376 25.3406 36.3964 20 36.3964C14.6594 36.3964 14.027 36.376 11.9183 36.2798C9.9683 36.1909 8.90932 35.865 8.20457 35.5911C7.27103 35.2283 6.60477 34.7949 5.90495 34.095C5.20512 33.3952 4.77166 32.729 4.40885 31.7954C4.13495 31.0907 3.80914 30.0317 3.72022 28.0817C3.624 25.9728 3.60359 25.3402 3.60359 20C3.60359 14.6598 3.624 14.0272 3.72022 11.9183C3.80914 9.9683 4.13495 8.90932 4.40885 8.20457C4.77166 7.27103 5.20504 6.60478 5.90495 5.90496C6.60477 5.20506 7.27103 4.77166 8.20457 4.40885C8.90932 4.13495 9.9683 3.80914 11.9183 3.72022C14.0272 3.624 14.6598 3.60359 20 3.60359ZM20 9.72974C14.3279 9.72974 9.72974 14.3279 9.72974 20C9.72974 25.6721 14.3279 30.2703 20 30.2703C25.6722 30.2703 30.2703 25.6721 30.2703 20C30.2703 14.3279 25.6722 9.72974 20 9.72974ZM20 26.6667C16.3181 26.6667 13.3333 23.6819 13.3333 20C13.3333 16.3181 16.3181 13.3333 20 13.3333C23.6819 13.3333 26.6667 16.3181 26.6667 20C26.6667 23.6819 23.6819 26.6667 20 26.6667ZM33.0761 9.32397C33.0761 10.6495 32.0015 11.7239 30.676 11.7239C29.3506 11.7239 28.2761 10.6495 28.2761 9.32397C28.2761 7.99847 29.3506 6.92393 30.676 6.92393C32.0015 6.92393 33.0761 7.99847 33.0761 9.32397Z" fill="white"/>
</svg>
